<?xml version="1.0" encoding="UTF-8"?>
<svg version="1.1" xmlns="http://www.w3.org/2000/svg" width="1045" height="259">
<path d="M0 0 C1.32 0.66 2.64 1.32 4 2 C4 2.66 4 3.32 4 4 C4.9590625 4.4021875 4.9590625 4.4021875 5.9375 4.8125 C8 6 8 6 9 9 C9.5775 9.28875 10.155 9.5775 10.75 9.875 C13.79225245 11.39612622 15.73842507 13.48713896 18 16 C18 16.66 18 17.32 18 18 C18.639375 18.268125 19.27875 18.53625 19.9375 18.8125 C22 20 22 20 23 23 C23.66 23.33 24.32 23.66 25 24 C25.66 24.33 26.32 24.66 27 25 C27.495 26.485 27.495 26.485 28 28 C30.00016466 29.20882096 30.00016466 29.20882096 32 30 C32 30.66 32 31.32 32 32 C32.639375 32.268125 33.27875 32.53625 33.9375 32.8125 C36 34 36 34 37 37 C37.66 37.33 38.32 37.66 39 38 C39.66 38.33 40.32 38.66 41 39 C41.33 39.99 41.66 40.98 42 42 C44.00016466 43.20882096 44.00016466 43.20882096 46 44 C46 44.66 46 45.32 46 46 C46.639375 46.268125 47.27875 46.53625 47.9375 46.8125 C50 48 50 48 51 51 C51.66 51.33 52.32 51.66 53 52 C53.66 52.33 54.32 52.66 55 53 C55.33 53.99 55.66 54.98 56 56 C56.5775 56.28875 57.155 56.5775 57.75 56.875 C60.79225245 58.39612622 62.73842507 60.48713896 65 63 C65 63.66 65 64.32 65 65 C65.639375 65.268125 66.27875 65.53625 66.9375 65.8125 C69 67 69 67 70 70 C70.5775 70.28875 71.155 70.5775 71.75 70.875 C74.79225245 72.39612622 76.73842507 74.48713896 79 77 C79 77.66 79 78.32 79 79 C79.639375 79.268125 80.27875 79.53625 80.9375 79.8125 C83 81 83 81 84 84 C84.66 84.33 85.32 84.66 86 85 C86.66 85.33 87.32 85.66 88 86 C88.33 86.99 88.66 87.98 89 89 C91.00016466 90.20882096 91.00016466 90.20882096 93 91 C93 91.66 93 92.32 93 93 C93.639375 93.28875 94.27875 93.5775 94.9375 93.875 C97 95 97 95 98 97 C96.625 99 96.625 99 95 101 C94.34 101 93.68 101 93 101 C91.42726432 103.8424854 91.42726432 103.8424854 91 107 C91.98575063 107.97432163 93.01337913 108.90676695 94.0625 109.8125 C96.97481483 112.65580263 96.97481483 112.65580263 97.1875 115.5625 C95.65677864 118.70450701 93.58526323 120.67989197 91 123 C92.96318174 126.53372712 95.04070881 129.24479785 98 132 C97.1875 134.4375 97.1875 134.4375 96 137 C95.01 137.33 94.02 137.66 93 138 C92.3094214 139.32110689 91.64467276 140.65589463 91 142 C89.51953125 143.421875 89.51953125 143.421875 87.8125 144.75 C85.08452656 146.98659934 82.77755518 149.30600697 80.5 152 C77.80219172 155.17955975 74.96432437 157.79716213 71.75 160.4375 C69.81378167 162.16626636 68.17886538 164.02133723 66.5 166 C63.80742356 169.17339366 60.98017759 171.78985481 57.765625 174.41796875 C55.08245684 176.82213491 52.85103085 179.57525422 50.578125 182.36328125 C49 184 49 184 46 185 C45.31355829 186.32326112 44.64884446 187.65790347 44 189 C42.37890625 190.5625 42.37890625 190.5625 40.5625 192 C37.93802994 194.1453137 36.00441676 196.25711391 34 199 C33.34 199 32.68 199 32 199 C31.73574219 199.60328125 31.47148437 200.2065625 31.19921875 200.828125 C29.94244926 203.1042287 28.84559838 204.16818433 26.8125 205.75 C24.08452656 207.98659934 21.77755518 210.30600697 19.5 213 C16.79221672 216.19239774 13.9386472 218.82965739 10.7109375 221.48046875 C7.82621366 224.04247235 5.4196339 227.00426279 3 230 C-4.2801602 228.62010035 -8.99394073 222.073641 -13.51953125 216.63671875 C-14.92100715 214.88811115 -14.92100715 214.88811115 -17 214 C-17.309375 213.34 -17.61875 212.68 -17.9375 212 C-18.8891846 209.65391779 -18.8891846 209.65391779 -22 209 C-23.2109375 207.546875 -23.2109375 207.546875 -24.375 205.75 C-27.45280562 201.24813506 -31.07591495 197.72364711 -35.3125 194.3125 C-36.199375 193.549375 -37.08625 192.78625 -38 192 C-38 191.34 -38 190.68 -38 190 C-38.99 189.67 -39.98 189.34 -41 189 C-41 188.34 -41 187.68 -41 187 C-41.66 187 -42.32 187 -43 187 C-44.18711166 185.88072329 -45.36578973 184.75066944 -46.4921875 183.5703125 C-47.59921926 182.41739341 -48.73369257 181.29066237 -49.8828125 180.1796875 C-50.51960938 179.56351563 -51.15640625 178.94734375 -51.8125 178.3125 C-52.71935547 177.44044922 -52.71935547 177.44044922 -53.64453125 176.55078125 C-55 175 -55 175 -55 173 C-55.66 173 -56.32 173 -57 173 C-58.55078125 171.35546875 -58.55078125 171.35546875 -60.3125 169.1875 C-62.33793575 166.79456251 -63.80046022 165.11972387 -66.5 163.5 C-69.82963977 161.50221614 -71.89948823 158.81894755 -74.3515625 155.83984375 C-76.05843062 153.7808183 -76.05843062 153.7808183 -79 152 C-79.33 151.01 -79.66 150.02 -80 149 C-80.99 148.67 -81.98 148.34 -83 148 C-85.6875 145.625 -85.6875 145.625 -88 143 C-88 142.01 -88 141.02 -88 140 C-88.66 140 -89.32 140 -90 140 C-90 139.34 -90 138.68 -90 138 C-90.99 138 -91.98 138 -93 138 C-95 135 -95 135 -95 132.6875 C-93.54163402 128.76814142 -91.07350975 126.81193445 -88 124 C-88.763125 123.4225 -89.52625 122.845 -90.3125 122.25 C-92.66200917 120.28296907 -94.29323505 118.51523256 -96 116 C-94.33248852 112.05860922 -91.77289351 109.2107188 -89 106 C-91.31 103.36 -93.62 100.72 -96 98 C-94.50592885 93.2687747 -94.50592885 93.2687747 -92 91.9375 C-91.34 91.628125 -90.68 91.31875 -90 91 C-89.31513275 89.67592331 -88.65129797 88.34090759 -88 87 C-85.5 84.25 -85.5 84.25 -83 82 C-82.34 82 -81.68 82 -81 82 C-80.731875 81.360625 -80.46375 80.72125 -80.1875 80.0625 C-79 78 -79 78 -76 77 C-75.67 76.34 -75.34 75.68 -75 75 C-74 73 -74 73 -71 72 C-70.71125 71.4225 -70.4225 70.845 -70.125 70.25 C-68.60387378 67.20774755 -66.51286104 65.26157493 -64 63 C-63.34 63 -62.68 63 -62 63 C-61.731875 62.360625 -61.46375 61.72125 -61.1875 61.0625 C-60 59 -60 59 -57 58 C-56.71125 57.4225 -56.4225 56.845 -56.125 56.25 C-54.60387378 53.20774755 -52.51286104 51.26157493 -50 49 C-49.34 49 -48.68 49 -48 49 C-47.731875 48.360625 -47.46375 47.72125 -47.1875 47.0625 C-46 45 -46 45 -43 44 C-42.71125 43.4225 -42.4225 42.845 -42.125 42.25 C-40.60387378 39.20774755 -38.51286104 37.26157493 -36 35 C-35.34 35 -34.68 35 -34 35 C-33.731875 34.360625 -33.46375 33.72125 -33.1875 33.0625 C-32 31 -32 31 -29 30 C-28.71125 29.4225 -28.4225 28.845 -28.125 28.25 C-26.60387378 25.20774755 -24.51286104 23.26157493 -22 21 C-21.34 21 -20.68 21 -20 21 C-19.60929321 20.12142334 -19.60929321 20.12142334 -19.21069336 19.22509766 C-17.92219348 16.85700168 -16.53771049 15.29414488 -14.62890625 13.3984375 C-13.97212891 12.74359375 -13.31535156 12.08875 -12.63867188 11.4140625 C-11.6109668 10.40472656 -11.6109668 10.40472656 -10.5625 9.375 C-9.88123047 8.694375 -9.19996094 8.01375 -8.49804688 7.3125 C-5.74387876 4.58260957 -3.2382409 2.15882726 0 0 Z M-5 63 C-5.99 63.99 -6.98 64.98 -8 66 C-8 66.66 -8 67.32 -8 68 C-8.66 68 -9.32 68 -10 68 C-10 68.99 -10 69.98 -10 71 C-10.66 71 -11.32 71 -12 71 C-12.33 72.32 -12.66 73.64 -13 75 C-13.66 75 -14.32 75 -15 75 C-15 75.99 -15 76.98 -15 78 C-15.66 78 -16.32 78 -17 78 C-17.33 79.32 -17.66 80.64 -18 82 C-18.66 82 -19.32 82 -20 82 C-20.45375 82.639375 -20.9075 83.27875 -21.375 83.9375 C-23 86 -23 86 -25.125 86.8125 C-25.74375 86.874375 -26.3625 86.93625 -27 87 C-27.33 86.67 -27.66 86.34 -28 86 C-30.53049402 85.92686433 -33.03304837 85.90752473 -35.5625 85.9375 C-36.27341797 85.94201172 -36.98433594 85.94652344 -37.71679688 85.95117188 C-39.47790013 85.96299136 -41.23896036 85.98092737 -43 86 C-42.67 86.99 -42.34 87.98 -42 89 C-41.34 88.9175 -40.68 88.835 -40 88.75 C-35.78756306 89.10103641 -32.65289323 90.96960773 -29 93 C-30.38636245 97.04355714 -32.30956749 99.70687204 -35 103 C-36.38837543 104.8232251 -37.7632906 106.65677359 -39.125 108.5 C-39.80820313 109.4178125 -40.49140625 110.335625 -41.1953125 111.28125 C-42.87678624 113.81437928 -43.88323465 116.19326231 -45 119 C-45.99 119.495 -45.99 119.495 -47 120 C-47.66 120.99 -48.32 121.98 -49 123 C-48.67 123.33 -48.34 123.66 -48 124 C-45.64305046 123.90968426 -43.28846418 123.75311872 -40.9375 123.5625 C-39.00197266 123.40974609 -39.00197266 123.40974609 -37.02734375 123.25390625 C-36.02832031 123.17011719 -35.02929688 123.08632812 -34 123 C-34 122.34 -34 121.68 -34 121 C-33.34 121 -32.68 121 -32 121 C-31.34 119.88625 -30.68 118.7725 -30 117.625 C-29.62875 116.99851563 -29.2575 116.37203125 -28.875 115.7265625 C-27.84931652 114.02527333 -27.84931652 114.02527333 -28 112 C-27.34 112 -26.68 112 -26 112 C-23.68407978 108.77885843 -23.68407978 108.77885843 -23 105 C-22.34 105 -21.68 105 -21 105 C-20.67 104.01 -20.34 103.02 -20 102 C-18.515 101.505 -18.515 101.505 -17 101 C-13.31615153 106.26911114 -10.91666713 111.48120426 -8.89453125 117.58203125 C-8.02984593 120.20607128 -8.02984593 120.20607128 -6 123 C-2.37 123 1.26 123 5 123 C5 103.2 5 83.4 5 63 C1.7 63 -1.6 63 -5 63 Z M30 63 C29.67 64.32 29.34 65.64 29 67 C28.34 67 27.68 67 27 67 C26.34 68.98 25.68 70.96 25 73 C24.34 73 23.68 73 23 73 C20.68407978 76.22114157 20.68407978 76.22114157 20 80 C19.34 80.33 18.68 80.66 18 81 C16.9583671 82.23693907 15.96369534 83.51392053 15 84.8125 C14.484375 85.49957031 13.96875 86.18664062 13.4375 86.89453125 C12.08762375 88.87165978 11.01231988 90.83421949 10 93 C11.28655265 94.81613362 12.57939995 96.62780954 13.875 98.4375 C14.59429687 99.44683594 15.31359375 100.45617187 16.0546875 101.49609375 C17.7559726 104.05796247 17.7559726 104.05796247 20 105 C20 105.99 20 106.98 20 108 C20.66 108 21.32 108 22 108 C22 108.99 22 109.98 22 111 C22.66 111 23.32 111 24 111 C24.28875 111.928125 24.5775 112.85625 24.875 113.8125 C25.8875 117.09791667 25.8875 117.09791667 28 120 C28.66 120 29.32 120 30 120 C30.33 120.99 30.66 121.98 31 123 C35.95 123 40.9 123 46 123 C42.68677911 117.8613245 42.68677911 117.8613245 39 113 C38.34 113 37.68 113 37 113 C37 112.01 37 111.02 37 110 C36.34 110 35.68 110 35 110 C34.34 108.35 33.68 106.7 33 105 C32.34 105 31.68 105 31 105 C30.896875 104.401875 30.79375 103.80375 30.6875 103.1875 C29.89505679 100.66608978 28.88056492 99.80534232 27 98 C25.8125 95.8125 25.8125 95.8125 25 94 C24.34 94 23.68 94 23 94 C23 92.68 23 91.36 23 90 C23.99 89.67 24.98 89.34 26 89 C26 88.34 26 87.68 26 87 C26.66 86.525625 27.32 86.05125 28 85.5625 C28.66 85.046875 29.32 84.53125 30 84 C30 83.01 30 82.02 30 81 C30.66 81 31.32 81 32 81 C32 80.34 32 79.68 32 79 C32.66 79 33.32 79 34 79 C34.33 78.01 34.66 77.02 35 76 C35.97648017 74.97702078 36.98131338 73.98095748 38 73 C40.99803093 69.90848963 40.99803093 69.90848963 42 66 C42.99 65.67 43.98 65.34 45 65 C44.505 64.01 44.505 64.01 44 63 C39.38 63 34.76 63 30 63 Z M-86 109 C-86.66 110.32 -87.32 111.64 -88 113 C-88.66 113 -89.32 113 -90 113 C-90.33 113.99 -90.66 114.98 -91 116 C-90.2575 116.7425 -89.515 117.485 -88.75 118.25 C-87.08320313 119.91679687 -85.43237213 121.60006375 -83.8125 123.3125 C-82.16877727 125.22713951 -82.16877727 125.22713951 -80 125 C-79.67 125.99 -79.34 126.98 -79 128 C-78.34 128 -77.68 128 -77 128 C-76.79375 128.53625 -76.5875 129.0725 -76.375 129.625 C-74.46749574 132.91978009 -71.95180616 135.59363628 -69 138 C-68.34 138 -67.68 138 -67 138 C-66.67 138.99 -66.34 139.98 -66 141 C-65.34 141 -64.68 141 -64 141 C-63.67 141.99 -63.34 142.98 -63 144 C-62.34 144 -61.68 144 -61 144 C-60.67 144.99 -60.34 145.98 -60 147 C-59.34 147 -58.68 147 -58 147 C-57.67 147.99 -57.34 148.98 -57 150 C-56.34 150 -55.68 150 -55 150 C-54.731875 150.598125 -54.46375 151.19625 -54.1875 151.8125 C-53.00082594 153.99847854 -51.90400887 155.41332594 -50 157 C-49.34 157 -48.68 157 -48 157 C-47.67 157.99 -47.34 158.98 -47 160 C-46.34 160 -45.68 160 -45 160 C-44.67 160.99 -44.34 161.98 -44 163 C-43.34 163 -42.68 163 -42 163 C-41.773125 163.556875 -41.54625 164.11375 -41.3125 164.6875 C-39.6296426 167.65253447 -37.46378626 169.65353689 -35 172 C-34.278125 172.763125 -33.55625 173.52625 -32.8125 174.3125 C-31.16877727 176.22713951 -31.16877727 176.22713951 -29 176 C-28.7525 176.61875 -28.505 177.2375 -28.25 177.875 C-27.17856271 180.13746494 -27.17856271 180.13746494 -25 181 C-22.47154472 182.26422764 -22.23577236 183.52845528 -21 186 C-20.34 186.33 -19.68 186.66 -19 187 C-16.46447088 188.26776456 -16.15080425 189.46823065 -15 192 C-13.5833253 193.7511573 -13.5833253 193.7511573 -12 195 C-11.34 195 -10.68 195 -10 195 C-9.67 195.99 -9.34 196.98 -9 198 C-7.62485459 199.7087646 -7.62485459 199.7087646 -6 201 C-5.34 201 -4.68 201 -4 201 C-3.67 201.99 -3.34 202.98 -3 204 C-2.34 204 -1.68 204 -1 204 C-0.67 204.99 -0.34 205.98 0 207 C0.721875 206.278125 1.44375 205.55625 2.1875 204.8125 C3.115625 203.884375 4.04375 202.95625 5 202 C5.86625 201.0925 6.7325 200.185 7.625 199.25 C10 197 10 197 13 196 C13 195.34 13 194.68 13 194 C13.66 193.67 14.32 193.34 15 193 C15.495 192.505 15.99 192.01 16.5 191.5 C18 190 18 190 20 189 C20.495 187.515 20.495 187.515 21 186 C21.969375 185.360625 22.93875 184.72125 23.9375 184.0625 C27.07131164 181.9519738 27.52609926 181.24258163 29 178 C31.76788327 174.98789173 34.76809836 172.33679598 37.875 169.6875 C41.36692529 166.6738309 44.31017853 163.41699997 47.28515625 159.90234375 C49.42283356 157.53093407 51.78803705 155.58482671 54.25 153.5625 C56.18621833 151.83373364 57.82113462 149.97866277 59.5 148 C62.19780828 144.82044025 65.03567563 142.20283787 68.25 139.5625 C70.18621833 137.83373364 71.82113462 135.97866277 73.5 134 C75.69192291 131.41666228 77.88247394 129.15011069 80.5 127 C84.85999239 123.40941803 89.45135101 119.09729798 92 114 C91.34 114 90.68 114 90 114 C89.67 113.01 89.34 112.02 89 111 C87.35 110.67 85.7 110.34 84 110 C83.57589844 110.50789063 83.15179688 111.01578125 82.71484375 111.5390625 C79.81546726 114.94184721 76.96078223 118.15917649 73.5 121 C70.88247394 123.15011069 68.69192291 125.41666228 66.5 128 C64.30807709 130.58333772 62.11752606 132.84988931 59.5 135 C56.90472037 137.13286901 54.73310564 139.3731337 52.5625 141.9375 C49.62070014 145.40579647 46.43856472 148.28317936 42.97265625 151.21484375 C40.29590187 153.63717395 38.04377768 156.34623998 35.71484375 159.09765625 C33.57716644 161.46906593 31.21196295 163.41517329 28.75 165.4375 C26.81378167 167.16626636 25.17886538 169.02133723 23.5 171 C20.80460593 174.17671445 17.97060128 176.7931837 14.7578125 179.4296875 C12.12334348 181.78314649 9.92676203 184.47484249 7.64453125 187.1640625 C5.63603644 189.40632511 3.43142857 191.23168831 1 193 C-3.00349662 190.57928112 -5.67583588 188.36199299 -8.58984375 184.6328125 C-10.22951876 182.73424143 -12.02306421 181.18268664 -13.9375 179.5625 C-16.53982775 177.34930537 -18.83265328 175.13979287 -21 172.5 C-23.15011069 169.88247394 -25.41666228 167.69192291 -28 165.5 C-31.17955975 162.80219172 -33.79716213 159.96432437 -36.4375 156.75 C-38.16626636 154.81378167 -40.02133723 153.17886538 -42 151.5 C-44.58333772 149.30807709 -46.84988931 147.11752606 -49 144.5 C-51.74974729 141.15834526 -54.83548949 138.42273193 -58.12109375 135.6171875 C-61.68165355 132.55258925 -64.82074294 129.23435838 -67.8125 125.625 C-71.18106737 121.64318063 -75.01617309 118.34916734 -79 115 C-80.3340927 113.85505088 -81.66747788 112.70927661 -83 111.5625 C-83.99 110.716875 -84.98 109.87125 -86 109 Z M78 134 C76.47557719 135.71686232 75.01968812 137.47603186 73.5625 139.25 C71.24376808 141.84697975 68.5880319 144.00106384 65.9375 146.25 C64.10650686 147.90380025 62.56392014 149.59609722 61 151.5 C58.27534739 154.8169684 55.20392478 157.47848806 51.9375 160.25 C49.56187804 162.39572306 47.60734412 164.75675844 45.5859375 167.23046875 C43.15024703 169.94812339 40.3589313 172.21188581 37.5390625 174.51953125 C36.77722656 175.25236328 36.77722656 175.25236328 36 176 C36 176.66 36 177.32 36 178 C35.40703125 178.25394531 34.8140625 178.50789063 34.203125 178.76953125 C31.75602301 180.13626374 30.50652046 181.51742982 28.75 183.6875 C26.31001458 186.58204373 23.82886075 189.11894082 20.9375 191.5625 C17.78309422 194.23254405 15.19219631 197.04578252 12.578125 200.234375 C10.1943861 202.90133041 7.48350721 205.14158705 4.734375 207.421875 C2.77231826 209.0792468 2.77231826 209.0792468 1 212 C-2.21685457 209.66046941 -4.8143815 207.1422525 -7.375 204.125 C-10.1857664 200.82219572 -13.1339608 198.02802673 -16.51953125 195.32421875 C-18 194 -18 194 -20 191 C-20.66 191 -21.32 191 -22 191 C-22 190.34 -22 189.68 -22 189 C-22.66 189 -23.32 189 -24 189 C-24 188.34 -24 187.68 -24 187 C-26.69306503 184.06211087 -29.57366561 181.4964747 -32.625 178.9375 C-35.15432068 176.81418741 -37.04776751 174.67147604 -39 172 C-39.66 172 -40.32 172 -41 172 C-41.226875 171.443125 -41.45375 170.88625 -41.6875 170.3125 C-43.37377267 167.34144815 -45.530354 165.35477875 -48 163 C-50.55608343 160.46095712 -53.09200984 157.90550714 -55.60546875 155.32421875 C-56.45753906 154.45410156 -57.30960938 153.58398438 -58.1875 152.6875 C-59.04730469 151.80449219 -59.90710938 150.92148438 -60.79296875 150.01171875 C-62.74863355 147.7754504 -62.74863355 147.7754504 -65 148 C-65.25595947 147.42024414 -65.51191895 146.84048828 -65.77563477 146.24316406 C-68.03252998 142.10829801 -71.6223318 139.05058962 -74.9375 135.75 C-75.66646484 135.00492188 -76.39542969 134.25984375 -77.14648438 133.4921875 C-77.84966797 132.78835937 -78.55285156 132.08453125 -79.27734375 131.359375 C-79.91921631 130.71452148 -80.56108887 130.06966797 -81.22241211 129.40527344 C-83.01457446 127.68991767 -83.01457446 127.68991767 -86 128 C-89.05076843 131.03655958 -89.05076843 131.03655958 -90 135 C-89.34 135 -88.68 135 -88 135 C-87.67 135.99 -87.34 136.98 -87 138 C-86.34 138 -85.68 138 -85 138 C-85 138.66 -85 139.32 -85 140 C-83.41262601 141.56648858 -83.41262601 141.56648858 -81.375 143.1875 C-78.00560514 146.04403122 -75.11255831 149.00236403 -72.32421875 152.421875 C-70.95229092 154.05685684 -69.59532286 155.58003434 -68 157 C-67.34 157 -66.68 157 -66 157 C-66 157.66 -66 158.32 -66 159 C-64.66666667 160.66666667 -64.66666667 160.66666667 -63 162 C-62.34 162 -61.68 162 -61 162 C-60.67 162.99 -60.34 163.98 -60 165 C-58.12491838 167.2085766 -58.12491838 167.2085766 -56 169 C-55.34 169 -54.68 169 -54 169 C-54 169.66 -54 170.32 -54 171 C-53.34 171 -52.68 171 -52 171 C-52 171.66 -52 172.32 -52 173 C-50.44616853 174.53237551 -50.44616853 174.53237551 -48.4375 176.125 C-44.75079425 179.23749317 -41.67247165 182.55512605 -38.640625 186.30078125 C-36.88886609 188.11510298 -35.30419655 189.01320278 -33 190 C-33 190.66 -33 191.32 -33 192 C-32.34 192 -31.68 192 -31 192 C-31 192.66 -31 193.32 -31 194 C-30.34 194 -29.68 194 -29 194 C-28.67 194.99 -28.34 195.98 -28 197 C-26.30846256 198.71452342 -26.30846256 198.71452342 -24.25 200.375 C-20.27326301 203.75415934 -16.40388467 207.07615804 -13.3125 211.3125 C-12.879375 211.869375 -12.44625 212.42625 -12 213 C-11.34 213 -10.68 213 -10 213 C-10 213.66 -10 214.32 -10 215 C-6.61059096 218.68847454 -2.87547124 221.84554667 1 225 C2.1549921 224.26418258 3.29874185 223.51069961 4.4375 222.75 C5.07558594 222.33234375 5.71367188 221.9146875 6.37109375 221.484375 C8.29902057 219.72751123 8.61479436 218.53910197 9 216 C9.99 216 10.98 216 12 216 C13.70134007 214.40291884 13.70134007 214.40291884 15.3125 212.3125 C18.31385853 208.72350706 21.36223974 205.92602456 25 203 C26.68711423 201.3540349 28.3545622 199.68762851 30 198 C32.56444997 195.43555003 35.12649074 192.87925884 37.75 190.375 C40.19004674 188.13466888 40.19004674 188.13466888 41 185 C42.32159366 184.31035341 43.65643647 183.64580126 45 183 C46.56455488 181.46447533 46.56455488 181.46447533 47.9375 179.6875 C51.09596749 175.86074216 54.28515457 172.25137369 58.3125 169.3125 C58.869375 168.879375 59.42625 168.44625 60 168 C60 167.34 60 166.68 60 166 C60.59554687 165.74347656 61.19109375 165.48695313 61.8046875 165.22265625 C64.19696371 163.89030313 65.42728199 162.56631395 67.125 160.4375 C69.80555556 157.09722222 69.80555556 157.09722222 72 156 C72 155.01 72 154.02 72 153 C72.721875 152.773125 73.44375 152.54625 74.1875 152.3125 C78.86802016 150.12825726 82.19069125 146.2878923 85 142 C85 141.34 85 140.68 85 140 C85.99 140 86.98 140 88 140 C90.92427254 137.59177555 92.45925627 135.78520613 93 132 C92.0409375 131.5978125 92.0409375 131.5978125 91.0625 131.1875 C89 130 89 130 88 127 C83.97586128 127 80.77161798 131.33778799 78 134 Z " fill="#2E3E52" transform="translate(108,16)"/>
<path d="M0 0 C9 0 9 0 11.609375 2.02734375 C12.31578125 2.98769531 13.0221875 3.94804688 13.75 4.9375 C14.15065674 5.46384033 14.55131348 5.99018066 14.96411133 6.5324707 C15.84757938 7.69822043 16.71854022 8.87352501 17.57861328 10.05664062 C19.11195145 12.15306312 20.68899243 14.21060028 22.27734375 16.265625 C24.47310919 19.10854695 26.65646518 21.95988189 28.82421875 24.82421875 C32.18344452 29.24120811 35.59308909 33.61968598 39 38 C39.33 25.46 39.66 12.92 40 0 C43.3 0 46.6 0 50 0 C50 18.81 50 37.62 50 57 C40 57 40 57 36.671875 53.87890625 C35.66620996 52.46208442 34.6936579 51.02135436 33.75 49.5625 C32.65863095 48.00652477 31.56344736 46.45321945 30.46484375 44.90234375 C29.90522949 44.09651855 29.34561523 43.29069336 28.76904297 42.46044922 C25.81526818 38.35223195 22.56470534 34.49825698 19.3125 30.625 C18.14063054 29.22243643 16.96996245 27.81886779 15.80078125 26.4140625 C15.30747314 25.8257666 14.81416504 25.2374707 14.3059082 24.63134766 C13.1205683 23.15061458 12.05211891 21.57817836 11 20 C10.67 32.21 10.34 44.42 10 57 C6.7 57 3.4 57 0 57 C0 38.19 0 19.38 0 0 Z " fill="#324254" transform="translate(340,68)"/>
<path d="M0 0 C9 0 9 0 12.046875 2.9375 C12.97660201 4.27213521 13.87628921 5.62804049 14.75 7 C15.76208519 8.4672917 16.77783477 9.9320613 17.796875 11.39453125 C18.31572266 12.15330566 18.83457031 12.91208008 19.36914062 13.69384766 C22.06481058 17.50571868 25.02776477 21.08979723 28 24.6875 C29.06263456 25.98296255 30.12514182 27.27852954 31.1875 28.57421875 C31.63480469 29.11651123 32.08210937 29.65880371 32.54296875 30.2175293 C34.37944076 32.46419186 36.18729448 34.7341181 38 37 C38.33 24.79 38.66 12.58 39 0 C42.3 0 45.6 0 49 0 C49 18.81 49 37.62 49 57 C40 57 40 57 37.9765625 55.7421875 C37.53054688 55.12601563 37.08453125 54.50984375 36.625 53.875 C36.06554687 53.1428125 35.50609375 52.410625 34.9296875 51.65625 C34.29289063 50.7796875 33.65609375 49.903125 33 49 C32.17424606 47.94400723 31.34315662 46.89217286 30.5078125 45.84375 C28.7380254 43.62100782 26.978554 41.39133131 25.234375 39.1484375 C20.50713242 33.08523506 15.74996888 27.04541494 11 21 C10.67 32.88 10.34 44.76 10 57 C6.7 57 3.4 57 0 57 C0 38.19 0 19.38 0 0 Z " fill="#324254" transform="translate(603,68)"/>
<path d="M0 0 C7.69646991 7.18244575 11.53522979 14.14463933 12.25 24.6875 C12.0592457 33.91307174 8.603662 41.57378765 2 48 C-5.37059916 53.20789384 -12.06340838 54.72896669 -21 54 C-27.09815829 52.69166786 -32.72528925 49.53031201 -37 45 C-42.18578999 36.69823641 -45.44310828 28.48459549 -43.5390625 18.609375 C-41.22445583 9.73217765 -36.59125958 3.41728217 -29.05859375 -1.80859375 C-20.23935653 -6.91270637 -8.16668214 -6.08334486 0 0 Z M-30.25 11.5625 C-33.51569473 17.97725751 -34.80748984 24.26816326 -32.9375 31.3125 C-30.80409932 37.18168092 -28.21843224 40.67747309 -22.75 43.9375 C-16.76405767 45.63351699 -12.22509865 45.13354082 -6.6875 42.3125 C-1.46679653 37.82026678 0.69434124 33.27145257 1.80859375 26.5859375 C2.29888907 19.96194772 0.36874181 14.81282096 -3.48828125 9.5078125 C-7.26766908 5.73819053 -10.65561659 4.56929779 -15.9375 4.5625 C-22.63638342 4.75154824 -25.83196542 6.5308495 -30.25 11.5625 Z " fill="#314153" transform="translate(855,72)"/>
<path d="M0 0 C3.3 0 6.6 0 10 0 C10 7.59 10 15.18 10 23 C19.24 23 28.48 23 38 23 C38 15.41 38 7.82 38 0 C41.3 0 44.6 0 48 0 C48 18.81 48 37.62 48 57 C44.7 57 41.4 57 38 57 C38 48.75 38 40.5 38 32 C28.76 32 19.52 32 10 32 C10 40.25 10 48.5 10 57 C6.7 57 3.4 57 0 57 C0 38.19 0 19.38 0 0 Z " fill="#314254" transform="translate(752,68)"/>
<path d="M0 0 C3.3 0 6.6 0 10 0 C10 7.59 10 15.18 10 23 C19.24 23 28.48 23 38 23 C38 15.41 38 7.82 38 0 C41.3 0 44.6 0 48 0 C48 18.81 48 37.62 48 57 C44.7 57 41.4 57 38 57 C38 48.75 38 40.5 38 32 C28.76 32 19.52 32 10 32 C10 40.25 10 48.5 10 57 C6.7 57 3.4 57 0 57 C0 38.19 0 19.38 0 0 Z " fill="#314254" transform="translate(667,68)"/>
<path d="M0 0 C3.3 0 6.6 0 10 0 C10 7.59 10 15.18 10 23 C19.24 23 28.48 23 38 23 C38 15.41 38 7.82 38 0 C41.3 0 44.6 0 48 0 C48 18.81 48 37.62 48 57 C44.7 57 41.4 57 38 57 C38 48.75 38 40.5 38 32 C28.76 32 19.52 32 10 32 C10 40.25 10 48.5 10 57 C6.7 57 3.4 57 0 57 C0 38.19 0 19.38 0 0 Z " fill="#314254" transform="translate(483,68)"/>
<path d="M0 0 C0.495 0.99 0.495 0.99 1 2 C0.22265625 3.7265625 0.22265625 3.7265625 -0.9375 5.625 C-1.618125 6.73875 -2.29875 7.8525 -3 9 C-3.639375 8.731875 -4.27875 8.46375 -4.9375 8.1875 C-5.948125 7.795625 -6.95875 7.40375 -8 7 C-8.66644531 6.72414063 -9.33289063 6.44828125 -10.01953125 6.1640625 C-15.51322054 4.06664697 -20.26971678 3.25960406 -26 5 C-28.59345925 7.13578997 -28.9197767 8.197767 -29.25 11.5 C-27.15221685 15.69556629 -23.2766428 16.53083342 -19 18 C-16.77383032 18.67660699 -14.5445125 19.34292415 -12.3125 20 C-6.33656771 21.79208238 -2.31141199 23.38039975 1.875 28.125 C4.00119203 33.55860186 3.73331165 38.91585109 1.8125 44.375 C-1.21564959 48.76059596 -4.53693337 51.41252637 -9.79296875 52.68359375 C-21.73182942 54.39518263 -31.86979404 52.38643419 -42 46 C-41.46930939 42.17902761 -40.50298434 39.93828597 -38 37 C-35.52145319 37.97559821 -33.06666581 38.96975756 -30.640625 40.0703125 C-23.83843675 43.07127791 -18.08028972 44.49888194 -10.9375 41.875 C-8.66025779 40.07600979 -8.66025779 40.07600979 -8.6875 36.8125 C-8.8421875 35.4203125 -8.8421875 35.4203125 -9 34 C-15.2340587 30.56490643 -21.63128254 28.41354677 -28.4140625 26.34375 C-32.78566658 24.70558899 -36.63292774 22.97158687 -39.3515625 19.05078125 C-40.98072694 13.89830335 -40.9193232 8.06896629 -38.5 3.1875 C-35.34529536 -1.54455695 -30.57374569 -4.18108092 -25.25 -5.875 C-15.86789204 -6.23585031 -7.95586801 -5.35394892 0 0 Z " fill="#314153" transform="translate(979,73)"/>
<path d="M0 0 C3.3 0 6.6 0 10 0 C10.33 8.91 10.66 17.82 11 27 C16.32718703 21.20078374 21.65358942 15.40122119 26.9375 9.5625 C27.62714844 8.80066406 28.31679688 8.03882812 29.02734375 7.25390625 C31.08711074 4.99578091 31.08711074 4.99578091 32.86328125 2.234375 C35 0 35 0 38.015625 -0.48828125 C39.61664063 -0.40126953 39.61664063 -0.40126953 41.25 -0.3125 C42.32765625 -0.26738281 43.4053125 -0.22226563 44.515625 -0.17578125 C45.33546875 -0.11777344 46.1553125 -0.05976562 47 0 C42.65989405 6.20015136 37.73053698 11.630474 32.49536133 17.07470703 C31.94517334 17.65333496 31.39498535 18.23196289 30.828125 18.828125 C30.0841748 19.6001123 30.0841748 19.6001123 29.32519531 20.38769531 C27.87514836 22.1519013 26.94653307 23.92840627 26 26 C26.57331055 26.77694214 26.57331055 26.77694214 27.15820312 27.56958008 C30.85747682 32.58374303 34.55378126 37.60007951 38.24707031 42.61865234 C39.31348287 44.06736935 40.38040376 45.51571258 41.44824219 46.96337891 C42.59279338 48.51556029 43.73408548 50.07014357 44.875 51.625 C45.79925781 52.88183594 45.79925781 52.88183594 46.7421875 54.1640625 C48 56 48 56 48 57 C43.72964404 57.92451005 40.24409643 58.14379904 36 57 C32.36317704 53.33209309 29.82831881 49.24985067 27.16699219 44.84765625 C25.43651145 42.1078491 23.42620065 39.62962395 21.375 37.125 C20.72273438 36.32320312 20.07046875 35.52140625 19.3984375 34.6953125 C18.93695313 34.13585937 18.47546875 33.57640625 18 33 C14.91999525 34.9219873 12.88520854 36.8821551 11 40 C9.80585875 45.55818471 9.9554429 51.3412482 10 57 C6.7 57 3.4 57 0 57 C0 38.19 0 19.38 0 0 Z " fill="#314253" transform="translate(427,68)"/>
<path d="M0 0 C3.3 0 6.6 0 10 0 C10.01458252 0.98282959 10.02916504 1.96565918 10.04418945 2.97827148 C10.1026459 6.66319163 10.17987058 10.34753056 10.26245117 14.03198242 C10.29547979 15.61945078 10.32357869 17.20703035 10.34643555 18.79467773 C10.13624286 33.04340542 10.13624286 33.04340542 16.125 45.5 C20.06654079 47.55645606 23.56428978 48.18808665 28 48 C33.2259705 46.32374531 35.38233375 43.75057949 38 39 C39.35157523 35.1035872 39.22488944 31.03236477 39.31640625 26.953125 C39.33718735 26.18192322 39.35796844 25.41072144 39.37937927 24.6161499 C39.44458572 22.16085428 39.50362484 19.70545479 39.5625 17.25 C39.60571274 15.58202065 39.6493279 13.91405168 39.69335938 12.24609375 C39.80023736 8.16416804 39.90158566 4.08213818 40 0 C43.3 0 46.6 0 50 0 C50.09984488 5.06789586 50.1719226 10.13520301 50.21972656 15.20385742 C50.23968148 16.92336009 50.26685558 18.64279633 50.30175781 20.36206055 C50.52460822 31.63239226 50.28983556 41.04750789 44.1875 50.9375 C37.82973797 56.93196134 31.12768167 58.36336775 22.6171875 58.19921875 C14.62432745 57.59080702 10.1186848 54.79560818 4.7265625 48.9375 C-1.11648058 38.99639503 -0.36710645 27.93567444 -0.1875 16.8125 C-0.17241891 15.17644467 -0.15873659 13.54037583 -0.14648438 11.90429688 C-0.11376583 7.93585803 -0.06217565 3.96808214 0 0 Z " fill="#324254" transform="translate(877,68)"/>
<path d="M0 0 C12.87 0 25.74 0 39 0 C39 2.97 39 5.94 39 9 C29.43 9 19.86 9 10 9 C10 13.95 10 18.9 10 24 C18.25 24 26.5 24 35 24 C35 26.64 35 29.28 35 32 C26.75 32 18.5 32 10 32 C10 37.61 10 43.22 10 49 C19.9 49 29.8 49 40 49 C40 51.64 40 54.28 40 57 C26.8 57 13.6 57 0 57 C0 38.19 0 19.38 0 0 Z " fill="#324254" transform="translate(993,68)"/>
<path d="M0 0 C1.37478516 0.01740234 1.37478516 0.01740234 2.77734375 0.03515625 C3.69644531 0.04417969 4.61554687 0.05320312 5.5625 0.0625 C6.27277344 0.07410156 6.98304688 0.08570312 7.71484375 0.09765625 C9.88505776 5.64315867 12.05376537 11.18924717 14.22119141 16.73583984 C14.95582264 18.61522599 15.69083656 20.4944626 16.42626953 22.37353516 C20.9435522 33.91633249 25.40335867 45.4762912 29.71484375 57.09765625 C26.08484375 57.09765625 22.45484375 57.09765625 18.71484375 57.09765625 C18.36550781 56.25460938 18.01617188 55.4115625 17.65625 54.54296875 C16.97369141 52.89941406 16.97369141 52.89941406 16.27734375 51.22265625 C15.59865234 49.58683594 15.59865234 49.58683594 14.90625 47.91796875 C14.21940912 46.29207001 13.50418488 44.67633851 12.71484375 43.09765625 C5.78484375 42.76765625 -1.14515625 42.43765625 -8.28515625 42.09765625 C-9.27515625 45.39765625 -10.26515625 48.69765625 -11.28515625 52.09765625 C-12.27515625 54.57265625 -12.27515625 54.57265625 -13.28515625 57.09765625 C-16.91515625 57.09765625 -20.54515625 57.09765625 -24.28515625 57.09765625 C-22.22882881 49.93376838 -19.82255884 43.02517064 -17.08984375 36.09375 C-16.69693146 35.08925308 -16.30401917 34.08475616 -15.89920044 33.04981995 C-15.07581678 30.94742461 -14.25050551 28.84578327 -13.42333984 26.74487305 C-12.15215409 23.51482297 -10.88815513 20.282026 -9.625 17.04882812 C-8.82203459 15.00113734 -8.01866394 12.9536054 -7.21484375 10.90625 C-6.83568817 9.93658798 -6.45653259 8.96692596 -6.06588745 7.96788025 C-5.71527252 7.07927811 -5.36465759 6.19067596 -5.00341797 5.27514648 C-4.69491913 4.49034409 -4.38642029 3.70554169 -4.068573 2.8969574 C-2.86046028 0.12224189 -2.86046028 0.12224189 0 0 Z M1.71484375 12.09765625 C0.5402282 15.19887336 -0.62346081 18.30407866 -1.78515625 21.41015625 C-2.11902344 22.29123047 -2.45289063 23.17230469 -2.796875 24.08007812 C-3.27060547 25.35141602 -3.27060547 25.35141602 -3.75390625 26.6484375 C-4.04716797 27.42872314 -4.34042969 28.20900879 -4.64257812 29.01293945 C-5.43243508 31.21188944 -5.43243508 31.21188944 -5.28515625 34.09765625 C-0.00515625 34.09765625 5.27484375 34.09765625 10.71484375 34.09765625 C9.59684843 30.80345613 8.47083122 27.51239361 7.33984375 24.22265625 C7.02273438 23.28550781 6.705625 22.34835938 6.37890625 21.3828125 C5.91484375 20.03896484 5.91484375 20.03896484 5.44140625 18.66796875 C5.15861816 17.84055176 4.87583008 17.01313477 4.58447266 16.16064453 C3.79557647 13.92711247 3.79557647 13.92711247 1.71484375 12.09765625 Z " fill="#314253" transform="translate(564.28515625,67.90234375)"/>
<path d="M0 0 C2.3828125 -0.29296875 2.3828125 -0.29296875 5.125 -0.1875 C6.03507812 -0.16042969 6.94515625 -0.13335937 7.8828125 -0.10546875 C8.58148438 -0.07066406 9.28015625 -0.03585938 10 0 C10.68775513 1.80633911 10.68775513 1.80633911 11.3894043 3.64916992 C13.11314351 8.17627161 14.83717093 12.7032635 16.5612793 17.23022461 C17.30321821 19.1784375 18.04508205 21.12667898 18.78686523 23.07495117 C19.50753761 24.9677488 20.22833111 26.86050032 20.94924927 28.75320435 C21.65443934 30.60484732 22.35925636 32.45663242 23.06369019 34.30856323 C24.57400497 38.27572278 26.08886185 42.2405935 27.63525391 46.19384766 C28.09206543 47.36351074 28.54887695 48.53317383 29.01953125 49.73828125 C29.40858643 50.72481689 29.7976416 51.71135254 30.19848633 52.7277832 C31 55 31 55 31 57 C27.7 57 24.4 57 21 57 C18.55192605 52.26705702 16.70406761 48.11220282 15 43 C8.07 43 1.14 43 -6 43 C-6.804375 45.124375 -7.60875 47.24875 -8.4375 49.4375 C-10.875 55.875 -10.875 55.875 -12 57 C-13.68608966 57.07205511 -15.37500659 57.08386068 -17.0625 57.0625 C-17.98160156 57.05347656 -18.90070313 57.04445312 -19.84765625 57.03515625 C-20.55792969 57.02355469 -21.26820313 57.01195312 -22 57 C-21.37936128 53.48349719 -20.46274147 50.30977555 -19.17407227 46.98193359 C-18.80020889 46.01097748 -18.42634552 45.04002136 -18.04115295 44.03964233 C-17.43490334 42.48474594 -17.43490334 42.48474594 -16.81640625 40.8984375 C-16.40083969 39.82502106 -15.98527313 38.75160461 -15.55711365 37.6456604 C-14.67898291 35.38051371 -13.79881276 33.11615673 -12.91674805 30.85253906 C-11.56564702 27.38308115 -10.22281375 23.91050447 -8.88085938 20.4375 C-8.02653498 18.2367876 -7.17173349 16.03626033 -6.31640625 13.8359375 C-5.91426407 12.79529144 -5.51212189 11.75464539 -5.09779358 10.6824646 C-4.72077805 9.71781281 -4.34376251 8.75316101 -3.95532227 7.75927734 C-3.62524673 6.91054047 -3.2951712 6.06180359 -2.95509338 5.18734741 C-2 3 -2 3 0 0 Z M4 12 C2.66399387 15.47814628 1.33164358 18.95768139 0 22.4375 C-0.3815625 23.43072266 -0.763125 24.42394531 -1.15625 25.44726562 C-1.5171875 26.39150391 -1.878125 27.33574219 -2.25 28.30859375 C-2.58515625 29.18314209 -2.9203125 30.05769043 -3.265625 30.95874023 C-4.0564207 32.79526915 -4.0564207 32.79526915 -4 34 C1.28 34 6.56 34 12 34 C10.56006454 26.27670981 7.94467554 19.2717751 5 12 C4.67 12 4.34 12 4 12 Z " fill="#314254" transform="translate(300,68)"/>
<path d="M0 0 C1.15518918 0.90484792 2.29885406 1.8244206 3.4375 2.75 C4.39462891 3.51570312 4.39462891 3.51570312 5.37109375 4.296875 C7.21567602 6.22550299 7.73400526 7.36133217 8 10 C6.6875 12.25 6.6875 12.25 5 14 C4.34 14 3.68 14 3 14 C2.60361328 14.90492188 2.60361328 14.90492188 2.19921875 15.828125 C0.94244926 18.1042287 -0.15440162 19.16818433 -2.1875 20.75 C-4.91547344 22.98659934 -7.22244482 25.30600697 -9.5 28 C-12.19780828 31.17955975 -15.03567563 33.79716213 -18.25 36.4375 C-20.18621833 38.16626636 -21.82113462 40.02133723 -23.5 42 C-26.19257644 45.17339366 -29.01982241 47.78985481 -32.234375 50.41796875 C-34.91754316 52.82213491 -37.14896915 55.57525422 -39.421875 58.36328125 C-41 60 -41 60 -44 61 C-44.68644171 62.32326112 -45.35115554 63.65790347 -46 65 C-47.62109375 66.5625 -47.62109375 66.5625 -49.4375 68 C-52.06197006 70.1453137 -53.99558324 72.25711391 -56 75 C-56.66 75 -57.32 75 -58 75 C-58.26425781 75.60328125 -58.52851563 76.2065625 -58.80078125 76.828125 C-60.05755074 79.1042287 -61.15440162 80.16818433 -63.1875 81.75 C-65.91547344 83.98659934 -68.22244482 86.30600697 -70.5 89 C-73.20778328 92.19239774 -76.0613528 94.82965739 -79.2890625 97.48046875 C-82.17378634 100.04247235 -84.5803661 103.00426279 -87 106 C-94.2801602 104.62010035 -98.99394073 98.073641 -103.51953125 92.63671875 C-104.92100715 90.88811115 -104.92100715 90.88811115 -107 90 C-107.309375 89.34 -107.61875 88.68 -107.9375 88 C-108.8891846 85.65391779 -108.8891846 85.65391779 -112 85 C-113.2109375 83.546875 -113.2109375 83.546875 -114.375 81.75 C-117.45280562 77.24813506 -121.07591495 73.72364711 -125.3125 70.3125 C-126.199375 69.549375 -127.08625 68.78625 -128 68 C-128 67.34 -128 66.68 -128 66 C-128.99 65.67 -129.98 65.34 -131 65 C-131 64.34 -131 63.68 -131 63 C-131.66 63 -132.32 63 -133 63 C-134.18711166 61.88072329 -135.36578973 60.75066944 -136.4921875 59.5703125 C-137.59921926 58.41739341 -138.73369257 57.29066237 -139.8828125 56.1796875 C-140.51960938 55.56351563 -141.15640625 54.94734375 -141.8125 54.3125 C-142.41707031 53.73113281 -143.02164063 53.14976562 -143.64453125 52.55078125 C-145 51 -145 51 -145 49 C-145.66 49 -146.32 49 -147 49 C-148.55078125 47.35546875 -148.55078125 47.35546875 -150.3125 45.1875 C-152.33793575 42.79456251 -153.80046022 41.11972387 -156.5 39.5 C-159.82963977 37.50221614 -161.89948823 34.81894755 -164.3515625 31.83984375 C-166.05843062 29.7808183 -166.05843062 29.7808183 -169 28 C-169.33 27.01 -169.66 26.02 -170 25 C-170.99 24.67 -171.98 24.34 -173 24 C-175.6875 21.625 -175.6875 21.625 -178 19 C-178 18.01 -178 17.02 -178 16 C-178.66 15.67 -179.32 15.34 -180 15 C-178.35 14.67 -176.7 14.34 -175 14 C-175 14.66 -175 15.32 -175 16 C-174.443125 16.226875 -173.88625 16.45375 -173.3125 16.6875 C-170.34144815 18.37377267 -168.35477875 20.530354 -166 23 C-165.071875 23.886875 -164.14375 24.77375 -163.1875 25.6875 C-161 28 -161 28 -161 30 C-160.01 30.33 -159.02 30.66 -158 31 C-158 31.66 -158 32.32 -158 33 C-157.34 33 -156.68 33 -156 33 C-156 33.66 -156 34.32 -156 35 C-154.515 35.495 -154.515 35.495 -153 36 C-153 36.66 -153 37.32 -153 38 C-152.34 38 -151.68 38 -151 38 C-149.31267723 39.98260426 -147.64633943 41.9832342 -146 44 C-145.01 44.495 -145.01 44.495 -144 45 C-144 45.66 -144 46.32 -144 47 C-143.34 47 -142.68 47 -142 47 C-142 47.66 -142 48.32 -142 49 C-141.01 49.33 -140.02 49.66 -139 50 C-137.28891311 51.62102968 -135.62746694 53.29503463 -134 55 C-133.154375 55.825 -132.30875 56.65 -131.4375 57.5 C-129 60 -129 60 -126.8125 62.75 C-125.19690923 65.07487388 -125.19690923 65.07487388 -123 66 C-123 66.66 -123 67.32 -123 68 C-122.34 68 -121.68 68 -121 68 C-121 68.66 -121 69.32 -121 70 C-120.34 70 -119.68 70 -119 70 C-117.66796875 71.35546875 -117.66796875 71.35546875 -116.1875 73.1875 C-112.66822814 77.42255596 -108.98419138 81.23605939 -104.6875 84.6875 C-103.800625 85.450625 -102.91375 86.21375 -102 87 C-102 87.66 -102 88.32 -102 89 C-101.34 89 -100.68 89 -100 89 C-100 89.66 -100 90.32 -100 91 C-99.443125 91.226875 -98.88625 91.45375 -98.3125 91.6875 C-95.35823409 93.36424552 -93.33152149 95.54576685 -91 98 C-90.34 98.66 -89.68 99.32 -89 100 C-83.89386809 96.97263027 -83.89386809 96.97263027 -81 92 C-80.01 92 -79.02 92 -78 92 C-77.505 90.515 -77.505 90.515 -77 89 C-75.37897032 87.28891311 -73.70496537 85.62746694 -72 84 C-71.113125 83.071875 -70.22625 82.14375 -69.3125 81.1875 C-67 79 -67 79 -65 79 C-64.74734375 78.40832031 -64.4946875 77.81664062 -64.234375 77.20703125 C-62.85451102 74.73986939 -61.43638893 73.46288171 -59.25 71.6875 C-56.57800816 69.4336076 -54.21295618 67.20539973 -52 64.5 C-49.86713099 61.90472037 -47.6268663 59.73310564 -45.0625 57.5625 C-41.57000692 54.60118458 -38.6679544 51.39116608 -35.71484375 47.90234375 C-33.58349825 45.5379582 -31.22941602 43.5960465 -28.76953125 41.5859375 C-26.05187661 39.15024703 -23.78811419 36.3589313 -21.48046875 33.5390625 C-20.99191406 33.03117187 -20.50335938 32.52328125 -20 32 C-19.34 32 -18.68 32 -18 32 C-18 31.01 -18 30.02 -18 29 C-17.319375 28.608125 -16.63875 28.21625 -15.9375 27.8125 C-11.43908396 25.03688159 -7.38374373 20.76748745 -5 16 C-4.01 16 -3.02 16 -2 16 C-1.67 15.01 -1.34 14.02 -1 13 C-0.34 12.67 0.32 12.34 1 12 C1.65213292 9.97536745 1.65213292 9.97536745 2 8 C1.01 7.34 0.02 6.68 -1 6 C-0.67 4.02 -0.34 2.04 0 0 Z " fill="#283249" transform="translate(198,140)"/>
<path d="M0 0 C0.33 0.66 0.66 1.32 1 2 C1.5775 2.268125 2.155 2.53625 2.75 2.8125 C5.74839382 4.39498563 7.66510237 6.55120493 10 9 C10.928125 9.886875 11.85625 10.77375 12.8125 11.6875 C15 14 15 14 15 16 C15.99 16.33 16.98 16.66 18 17 C18 17.66 18 18.32 18 19 C18.66 19 19.32 19 20 19 C20 19.66 20 20.32 20 21 C20.99 21.33 21.98 21.66 23 22 C23 22.66 23 23.32 23 24 C23.66 24 24.32 24 25 24 C26.68732277 25.98260426 28.35366057 27.9832342 30 30 C30.66 30.33 31.32 30.66 32 31 C32 31.66 32 32.32 32 33 C32.66 33 33.32 33 34 33 C34 33.66 34 34.32 34 35 C34.99 35.33 35.98 35.66 37 36 C39.6875 38.375 39.6875 38.375 42 41 C42 41.99 42 42.98 42 44 C41.34 44.66 40.68 45.32 40 46 C38.49403892 44.54782324 36.99537896 43.08807139 35.5 41.625 C34.6646875 40.81289062 33.829375 40.00078125 32.96875 39.1640625 C31 37 31 37 31 35 C30.34 35 29.68 35 29 35 C27.44921875 33.35546875 27.44921875 33.35546875 25.6875 31.1875 C23.66206425 28.79456251 22.19953978 27.11972387 19.5 25.5 C16.17036023 23.50221614 14.10051177 20.81894755 11.6484375 17.83984375 C9.94156938 15.7808183 9.94156938 15.7808183 7 14 C6.67 13.01 6.34 12.02 6 11 C5.01 10.67 4.02 10.34 3 10 C0.3125 7.625 0.3125 7.625 -2 5 C-2 4.01 -2 3.02 -2 2 C-2.66 1.67 -3.32 1.34 -4 1 C-2.68 0.67 -1.36 0.34 0 0 Z " fill="#222B3E" transform="translate(22,154)"/>
<path d="M0 0 C3.82053924 1.27351308 4.23021375 2.62637525 6.1875 6.0625 C6.71730469 6.98160156 7.24710938 7.90070313 7.79296875 8.84765625 C8.19128906 9.55792969 8.58960938 10.26820313 9 11 C9.98058352 9.54261898 10.95942132 8.08406325 11.9375 6.625 C12.48277344 5.81289062 13.02804687 5.00078125 13.58984375 4.1640625 C15.01093879 2.07280816 15.01093879 2.07280816 16 0 C16.99 0.33 17.98 0.66 19 1 C19 6.94 19 12.88 19 19 C18.01 19 17.02 19 16 19 C15.67 15.7 15.34 12.4 15 9 C13.35 11.31 11.7 13.62 10 16 C5.60841671 14.5361389 5.12052567 12.02168662 3 8 C2.67 11.63 2.34 15.26 2 19 C1.34 19 0.68 19 0 19 C0 12.73 0 6.46 0 0 Z " fill="#2D404F" transform="translate(909,155)"/>
<path d="M0 0 C9 0 9 0 13 2 C14.39935013 4.79870027 14.25265405 6.90498792 14 10 C12.5 11.875 12.5 11.875 11 13 C11.495 13.61875 11.99 14.2375 12.5 14.875 C14 17 14 17 14 19 C13.01 19 12.02 19 11 19 C10.54625 18.195625 10.0925 17.39125 9.625 16.5625 C8.23347815 13.75117093 8.23347815 13.75117093 5.3125 13.1875 C4.549375 13.125625 3.78625 13.06375 3 13 C3 14.98 3 16.96 3 19 C2.01 19 1.02 19 0 19 C0 12.73 0 6.46 0 0 Z M3 3 C3 5.31 3 7.62 3 10 C6.41656024 10.16677282 6.41656024 10.16677282 10 10 C10.66 9.34 11.32 8.68 12 8 C11.59471099 5.21762345 11.59471099 5.21762345 10 3 C7.66702567 2.95907063 5.33294775 2.95758277 3 3 Z " fill="#2D3F50" transform="translate(766,155)"/>
<path d="M0 0 C2.05541897 1.58146354 2.8778369 2.58711964 3.6171875 5.0859375 C4.03213687 8.77018495 4.20877711 11.38671725 3 14.9375 C0.17099132 17.85491521 -1.9960351 18.45708951 -6 19 C-9.29601265 17.88059948 -11.26108069 16.97403 -13.375 14.1875 C-14.53749233 10.11877684 -14.50948718 7.1208718 -12.75 3.25 C-8.99783204 -1.57421595 -5.81952984 -1.37552523 0 0 Z M-9.8125 3.1875 C-11.36927163 5.56362512 -11.8643141 7.15059619 -12 10 C-10.8584081 12.2831838 -9.80987317 14.19012683 -8 16 C-3.89569724 16.38910922 -3.89569724 16.38910922 -0.1875 14.875 C1.53112958 12.16137435 1.93572343 10.21382832 2 7 C0.59121904 4.0098357 0.59121904 4.0098357 -2 2 C-5.23708907 1.47149566 -7.03792509 1.36967506 -9.8125 3.1875 Z " fill="#2F3F50" transform="translate(882,156)"/>
<path d="M0 0 C2.05541897 1.58146354 2.8778369 2.58711964 3.6171875 5.0859375 C4.03213687 8.77018495 4.20877711 11.38671725 3 14.9375 C0.17099132 17.85491521 -1.9960351 18.45708951 -6 19 C-9.29601265 17.88059948 -11.26108069 16.97403 -13.375 14.1875 C-14.53749233 10.11877684 -14.50948718 7.1208718 -12.75 3.25 C-8.99783204 -1.57421595 -5.81952984 -1.37552523 0 0 Z M-9.8125 3.1875 C-11.36927163 5.56362512 -11.8643141 7.15059619 -12 10 C-10.8584081 12.2831838 -9.80987317 14.19012683 -8 16 C-3.89569724 16.38910922 -3.89569724 16.38910922 -0.1875 14.875 C1.53112958 12.16137435 1.93572343 10.21382832 2 7 C0.59121904 4.0098357 0.59121904 4.0098357 -2 2 C-5.23708907 1.47149566 -7.03792509 1.36967506 -9.8125 3.1875 Z " fill="#2F3F50" transform="translate(700,156)"/>
<path d="M0 0 C1.9375 2.0625 1.9375 2.0625 3 4 C2.01 4 1.02 4 0 4 C-0.33 3.67 -0.66 3.34 -1 3 C-4.45812169 2.66661404 -4.45812169 2.66661404 -8 3 C-10.3151437 6.47271555 -10.25453763 7.92739797 -10 12 C-9.67 12.99 -9.34 13.98 -9 15 C-6.36 15 -3.72 15 -1 15 C-0.34 13.68 0.32 12.36 1 11 C-0.32 11 -1.64 11 -3 11 C-3 10.34 -3 9.68 -3 9 C-1.02 9 0.96 9 3 9 C3 11.97 3 14.94 3 18 C-5.19009155 19.3446419 -5.19009155 19.3446419 -8.9375 17.75 C-12.18632186 14.99342387 -12.96138529 13.39901867 -13.375 9.125 C-13.28349961 4.98460745 -12.00506123 2.91667708 -9 0 C-5.8168485 -1.59157575 -3.38676935 -0.77242108 0 0 Z " fill="#2F4051" transform="translate(423,156)"/>
<path d="M0 0 C0.66 0 1.32 0 2 0 C2 2.97 2 5.94 2 9 C5.3 9 8.6 9 12 9 C12 6.03 12 3.06 12 0 C12.99 0 13.98 0 15 0 C15 6.27 15 12.54 15 19 C14.01 19 13.02 19 12 19 C12 16.36 12 13.72 12 11 C8.7 11 5.4 11 2 11 C2 13.64 2 16.28 2 19 C1.34 19 0.68 19 0 19 C0 12.73 0 6.46 0 0 Z " fill="#2F4052" transform="translate(450,155)"/>
<path d="M0 0 C9 0 9 0 12.125 1.5625 C14 4 14 4 14 7.625 C13 11 13 11 10 13 C7.95703125 13.1953125 7.95703125 13.1953125 5.8125 13.125 C3.9253125 13.063125 3.9253125 13.063125 2 13 C2 14.98 2 16.96 2 19 C1.34 19 0.68 19 0 19 C0 12.73 0 6.46 0 0 Z M2 3 C2 5.31 2 7.62 2 10 C6.00254456 10.09181134 6.00254456 10.09181134 10 10 C11.28322547 8.9404123 11.28322547 8.9404123 11.125 6.5 C11.28322547 4.0595877 11.28322547 4.0595877 10 3 C7.32941149 2.85884839 4.67567762 2.95752893 2 3 Z " fill="#2D4050" transform="translate(590,155)"/>
<path d="M0 0 C0.66 0 1.32 0 2 0 C2.04898438 0.98742187 2.09796875 1.97484375 2.1484375 2.9921875 C2.22320313 4.27351562 2.29796875 5.55484375 2.375 6.875 C2.44460938 8.15117187 2.51421875 9.42734375 2.5859375 10.7421875 C2.67241106 14.08061699 2.67241106 14.08061699 5 16 C8.08347826 16.16681109 8.08347826 16.16681109 11 16 C12.4807848 13.0384304 12.35314037 10.16493705 12.5625 6.875 C12.64628906 5.59367188 12.73007812 4.31234375 12.81640625 2.9921875 C12.87699219 2.00476563 12.93757812 1.01734375 13 0 C13.99 0 14.98 0 16 0 C16.05441656 1.89551022 16.09298035 3.7914792 16.125 5.6875 C16.14820313 6.74324219 16.17140625 7.79898438 16.1953125 8.88671875 C15.99580751 12.06682826 15.44050484 14.17363016 14 17 C11.11305683 19.40578598 9.65075978 20.0130152 5.875 19.9375 C2.42415036 18.81222294 1.7303161 18.15110351 0 15 C-0.21326685 12.3270555 -0.28545631 9.9073788 -0.1875 7.25 C-0.17396484 6.55261719 -0.16042969 5.85523438 -0.14648438 5.13671875 C-0.1112945 3.42414459 -0.05749155 1.71197059 0 0 Z " fill="#2F4051" transform="translate(727,155)"/>
<path d="M0 0 C0.99 0 1.98 0 3 0 C3.06058594 0.98742187 3.12117187 1.97484375 3.18359375 2.9921875 C3.26738281 4.27351562 3.35117187 5.55484375 3.4375 6.875 C3.51871094 8.15117187 3.59992187 9.42734375 3.68359375 10.7421875 C3.79206027 13.88300152 3.79206027 13.88300152 5 16 C7.91652174 16.16681109 7.91652174 16.16681109 11 16 C13.85793316 13.14206684 13.40799941 10.85334416 13.625 6.875 C13.69976563 5.59367188 13.77453125 4.31234375 13.8515625 2.9921875 C13.90054688 2.00476563 13.94953125 1.01734375 14 0 C14.66 0 15.32 0 16 0 C16.08117951 2.41734542 16.14056926 4.83194949 16.1875 7.25 C16.21263672 7.93191406 16.23777344 8.61382812 16.26367188 9.31640625 C16.30946287 12.46072149 16.19555402 14.64387377 14.66796875 17.42578125 C12.20052525 19.7545394 10.35124664 19.93297507 7 20 C3.86393271 18.71706338 2.41406818 17.81243032 0.8671875 14.77734375 C-0.1243687 11.60168402 -0.19795575 9.00698663 -0.125 5.6875 C-0.10695313 4.61886719 -0.08890625 3.55023438 -0.0703125 2.44921875 C-0.04710937 1.64097656 -0.02390625 0.83273438 0 0 Z " fill="#304052" transform="translate(550,155)"/>
<path d="M0 0 C3.96 0 7.92 0 12 0 C12 0.99 12 1.98 12 3 C8.7 3 5.4 3 2 3 C2 4.98 2 6.96 2 9 C4.97 9 7.94 9 11 9 C11 9.66 11 10.32 11 11 C8.03 11 5.06 11 2 11 C2 12.98 2 14.96 2 17 C5.63 17 9.26 17 13 17 C13 17.66 13 18.32 13 19 C8.71 19 4.42 19 0 19 C0 12.73 0 6.46 0 0 Z " fill="#304053" transform="translate(952,155)"/>
<path d="M0 0 C0.66 0 1.32 0 2 0 C2 2.97 2 5.94 2 9 C5.63 9 9.26 9 13 9 C13 6.03 13 3.06 13 0 C13.66 0 14.32 0 15 0 C15 6.27 15 12.54 15 19 C14.34 19 13.68 19 13 19 C13 16.36 13 13.72 13 11 C9.37 11 5.74 11 2 11 C2 13.64 2 16.28 2 19 C1.34 19 0.68 19 0 19 C0 12.73 0 6.46 0 0 Z " fill="#314253" transform="translate(830,155)"/>
<path d="M0 0 C4.95 0 9.9 0 15 0 C15 0.99 15 1.98 15 3 C13.02 3 11.04 3 9 3 C9 8.28 9 13.56 9 19 C8.01 19 7.02 19 6 19 C6 13.72 6 8.44 6 3 C4.02 3 2.04 3 0 3 C0 2.01 0 1.02 0 0 Z " fill="#304051" transform="translate(487,155)"/>
<path d="M0 0 C4.02550319 1.3418344 4.88285636 3.4227573 7 7 C7 7.66 7 8.32 7 9 C7.66 9 8.32 9 9 9 C9.268125 8.2575 9.53625 7.515 9.8125 6.75 C10.95276751 4.10938051 12.09380306 2.14447156 14 0 C14.66 0 15.32 0 16 0 C15.38722233 3.14048554 14.3279455 5.20342663 12.5 7.8125 C10.01441975 11.63040857 9.28242196 14.48124862 9 19 C8.34 19 7.68 19 7 19 C6.87044922 18.14728516 6.87044922 18.14728516 6.73828125 17.27734375 C5.64416242 11.26470907 3.67619396 7.83709732 0 3 C0 2.01 0 1.02 0 0 Z " fill="#2E3D4F" transform="translate(650,155)"/>
<path d="M0 0 C0.99 0 1.98 0 3 0 C3 5.61 3 11.22 3 17 C6.3 17 9.6 17 13 17 C13 17.66 13 18.32 13 19 C8.71 19 4.42 19 0 19 C0 12.73 0 6.46 0 0 Z " fill="#2F3F52" transform="translate(349,155)"/>
<path d="M0 0 C1.98 0.66 3.96 1.32 6 2 C6 2.66 6 3.32 6 4 C6.66 4 7.32 4 8 4 C8 4.66 8 5.32 8 6 C8.61875 6.20625 9.2375 6.4125 9.875 6.625 C12.88259567 8.57109132 13.2183701 10.58925136 14 14 C13.67 14.66 13.34 15.32 13 16 C12.319375 15.29875 11.63875 14.5975 10.9375 13.875 C8.82748533 11.73475589 6.60040978 9.87063541 4.25 8 C1.80328474 5.95134037 1.0815011 5.24993669 0.0625 2.125 C0.041875 1.42375 0.02125 0.7225 0 0 Z " fill="#21293F" transform="translate(90,225)"/>
<path d="M0 0 C0.08090971 1.62418745 0.13914995 3.24951745 0.1875 4.875 C0.22230469 5.77992187 0.25710937 6.68484375 0.29296875 7.6171875 C0.19628906 8.40351562 0.09960938 9.18984375 0 10 C-0.99 10.66 -1.98 11.32 -3 12 C-3 11.34 -3 10.68 -3 10 C-3.99 9.67 -4.98 9.34 -6 9 C-5.38983051 3.50847458 -5.38983051 3.50847458 -3.5625 1.125 C-2 0 -2 0 0 0 Z " fill="#242B3E" transform="translate(102,101)"/>
<path d="M0 0 C0.66 0 1.32 0 2 0 C2 6.27 2 12.54 2 19 C1.34 19 0.68 19 0 19 C0 12.73 0 6.46 0 0 Z " fill="#304153" transform="translate(385,155)"/>
<path d="M0 0 C0.33 0.66 0.66 1.32 1 2 C3.01669827 3.13350534 3.01669827 3.13350534 5 4 C5 5.98 5 7.96 5 10 C3 10 3 10 0.375 7.6875 C-2 5 -2 5 -2 2 C-2.66 1.67 -3.32 1.34 -4 1 C-2.68 0.67 -1.36 0.34 0 0 Z " fill="#20273A" transform="translate(22,154)"/>
<path d="M0 0 C5.61 0 11.22 0 17 0 C14 3 14 3 10.64453125 3.07421875 C9.37996094 2.94660156 8.11539063 2.81898437 6.8125 2.6875 C5.54019531 2.56761719 4.26789063 2.44773437 2.95703125 2.32421875 C1.98121094 2.21722656 1.00539062 2.11023438 0 2 C0 1.34 0 0.68 0 0 Z " fill="#121624" transform="translate(139,77)"/>
<path d="M0 0 C3 0 3 0 4.60546875 1.53125 C5.12753906 2.1809375 5.64960937 2.830625 6.1875 3.5 C6.71730469 4.1496875 7.24710938 4.799375 7.79296875 5.46875 C8.19128906 5.9740625 8.58960938 6.479375 9 7 C8.01 7.66 7.02 8.32 6 9 C4.99105628 8.07213211 3.99309093 7.13231567 3 6.1875 C2.1646875 5.40439453 2.1646875 5.40439453 1.3125 4.60546875 C0 3 0 3 0 0 Z " fill="#2C374D" transform="translate(44,178)"/>
<path d="M0 0 C0.66 0 1.32 0 2 0 C1.34 1.32 0.68 2.64 0 4 C-0.66 4 -1.32 4 -2 4 C-2.2475 4.639375 -2.495 5.27875 -2.75 5.9375 C-4 8 -4 8 -6.125 8.75 C-7.053125 8.87375 -7.053125 8.87375 -8 9 C-6.625 7 -6.625 7 -5 5 C-4.34 5 -3.68 5 -3 5 C-2.690625 4.360625 -2.38125 3.72125 -2.0625 3.0625 C-1 1 -1 1 0 0 Z " fill="#141B2F" transform="translate(176,154)"/>
<path d="M0 0 C0.66 0.33 1.32 0.66 2 1 C0.92807816 2.3218362 -0.15802695 3.63217927 -1.25 4.9375 C-1.85328125 5.66839844 -2.4565625 6.39929688 -3.078125 7.15234375 C-5.10741134 9.10326334 -6.254407 9.61731779 -9 10 C-8.67 9.34 -8.34 8.68 -8 8 C-7.34 8 -6.68 8 -6 8 C-5.731875 7.360625 -5.46375 6.72125 -5.1875 6.0625 C-4 4 -4 4 -1 3 C-0.67 2.01 -0.34 1.02 0 0 Z " fill="#151A2B" transform="translate(118,212)"/>
<path d="M0 0 C0.33 0.66 0.66 1.32 1 2 C0.65066406 2.48210937 0.30132812 2.96421875 -0.05859375 3.4609375 C-0.51363281 4.09257812 -0.96867187 4.72421875 -1.4375 5.375 C-1.88996094 6.00148437 -2.34242187 6.62796875 -2.80859375 7.2734375 C-4.05530717 8.99402639 -4.05530717 8.99402639 -5 11 C-5.875 8.875 -5.875 8.875 -6 6 C-4.2531134 3.70485976 -2.19996058 1.85561893 0 0 Z " fill="#1B2031" transform="translate(19,141)"/>
<path d="M0 0 C0.33 0.99 0.66 1.98 1 3 C-0.32 3.99 -1.64 4.98 -3 6 C-2.67 4.68 -2.34 3.36 -2 2 C-1.34 2 -0.68 2 0 2 C0 1.34 0 0.68 0 0 Z M-5 6 C-4.34 6.33 -3.68 6.66 -3 7 C-4.485 8.485 -4.485 8.485 -6 10 C-6.99 9.67 -7.98 9.34 -9 9 C-7.68 8.01 -6.36 7.02 -5 6 Z " fill="#162331" transform="translate(131,199)"/>
<path d="M0 0 C0.33 0.99 0.66 1.98 1 3 C-1.64 4.98 -4.28 6.96 -7 9 C-5.04783565 5.09567131 -3.12613393 2.96160056 0 0 Z " fill="#15192C" transform="translate(185,145)"/>
<path d="M0 0 C0 0.99 0 1.98 0 3 C-2.5 5.1875 -2.5 5.1875 -5 7 C-5.66 6.67 -6.32 6.34 -7 6 C-6.01 5.67 -5.02 5.34 -4 5 C-3.30062468 3.68352881 -2.63270867 2.34977849 -2 1 C-1.34 0.67 -0.68 0.34 0 0 Z " fill="#161C2C" transform="translate(149,182)"/>
<path d="" fill="#000000" transform="translate(0,0)"/>
<path d="" fill="#000000" transform="translate(0,0)"/>
<path d="" fill="#000000" transform="translate(0,0)"/>
<path d="" fill="#000000" transform="translate(0,0)"/>
<path d="" fill="#000000" transform="translate(0,0)"/>
<path d="" fill="#000000" transform="translate(0,0)"/>
<path d="" fill="#000000" transform="translate(0,0)"/>
<path d="" fill="#000000" transform="translate(0,0)"/>
</svg>
